<svg id="bd4437a1-6aa5-452f-9e80-e2e2b484cc64" data-name="Layer 1" xmlns="http://www.w3.org/2000/svg" viewBox="0 0 304 230"><path d="M32.25,191.81l11.89-1.37c-.55-2.91,3.23-8.18,3.23-8.18L36.8,183" fill="#d6d6d6"/><path d="M32.31,192.31l-.12-1L43.59,190c-.09-2.36,1.8-5.62,2.79-7.16l-9.55.68-.07-1,11.64-.84-.62.86c-1,1.42-3.57,5.58-3.14,7.8l.1.53Z" fill="#b5b5b5"/><polyline points="86.16 170.62 97.22 170.62 104.25 165.82 115.63 159.25 129.59 151.95 126.15 148.94" fill="#d6d6d6"/><polygon points="97.38 171.12 86.16 171.12 86.16 170.12 97.07 170.12 103.97 165.41 115.38 158.82 128.71 151.84 125.82 149.31 126.48 148.56 130.47 152.05 115.86 159.7 104.5 166.25 97.38 171.12" fill="#b5b5b5"/><path d="M259.42,171.68h-7.37a1.64,1.64,0,0,0-1.36,1.74c-.06,1.62,0,7,0,7a1.85,1.85,0,0,0,1.74,1.48c1.62.26,7,.59,7,.59" fill="#d6d6d6"/><path d="M259.39,183c-.22,0-5.41-.32-7-.58a2.35,2.35,0,0,1-2.17-1.93c0-.27-.06-5.44,0-7a2.14,2.14,0,0,1,1.81-2.22h7.42v1h-7.37c-.09,0-.82.16-.86,1.26-.06,1.58,0,6.9,0,6.95s.15.81,1.32,1c1.58.25,6.89.57,6.94.58Z" fill="#b5b5b5"/><path d="M194,213.56H92l.1-.59c0-.12,2-12.21-4.09-19.62-3-3.64-7.42-5.58-13.19-5.78s-10.1,1.44-13.35,4.84c-7,7.31-6,20.47-6,20.61l0,.54H35.77l-.15-.19c-.12-.14-11.94-14.84,1.66-31.79l.11-.13.16,0,20.52-5.36,10.2-2.23L85,170.69,98.08,163l13.15-6.86,12.41-5.92,4.48-1.68,5.8-1.32,10-1.67,17.06-1.3h15.94l16.49.92,5.15.59,7,2.78,6.33,3.16,9.67,6.5,7.58,6.1,4.68,2.34,4.35.55,9.21.36h6.08l4.09.58,2.33,1.9v17.55l2.49,1.78L264,193v7.4l-.77,5.38L260.59,209l-29.08,1.71,0-.57c0-.11.8-11.41-5.46-17.82-3.13-3.2-7.52-4.68-13.06-4.39s-9.81,2.24-12.94,5.81c-6.45,7.33-5.65,19.15-5.64,19.27l0,.54Zm-100.77-1H193.42c-.09-2.47-.09-12.64,5.91-19.47,3.32-3.78,7.91-5.84,13.64-6.15s10.49,1.27,13.84,4.7c5.82,6,5.86,15.56,5.77,18L260.1,208l2.17-2.68.72-5V193.1L261.61,190l-2.69-1.92V170.48l-1.74-1.43-3.75-.53h-6l-9.27-.37-4.64-.6-4.9-2.47L221,159l-9.58-6.45-6.24-3.11-6.92-2.73-4.93-.55-16.43-.92H161l-17,1.29-9.94,1.66-5.71,1.29L124,151.11,111.68,157l-13.11,6.83-13.28,7.82L68.46,174.8,58.31,177,38,182.33c-5.41,6.81-7.33,14-5.71,21.3a24.25,24.25,0,0,0,4,8.93H54.43c-.12-2.64-.23-14,6.32-20.83,3.46-3.62,8.19-5.34,14.11-5.16,6.08.21,10.77,2.27,13.93,6.15C94.43,199.62,93.51,210,93.18,212.56Z" fill="#b5b5b5"/><path d="M213.69,218.63A12.34,12.34,0,1,1,226,206.29,12.35,12.35,0,0,1,213.69,218.63Zm0-23.67A11.34,11.34,0,1,0,225,206.29,11.34,11.34,0,0,0,213.69,195Z" fill="#b5b5b5"/><path d="M213.57,222.7A16.38,16.38,0,1,1,230,206.32,16.4,16.4,0,0,1,213.57,222.7Zm0-31.76A15.38,15.38,0,1,0,229,206.32,15.4,15.4,0,0,0,213.57,190.94Z" fill="#b5b5b5"/><path d="M74.33,218.63a12.34,12.34,0,1,1,12.33-12.34A12.35,12.35,0,0,1,74.33,218.63Zm0-23.67a11.34,11.34,0,1,0,11.33,11.33A11.34,11.34,0,0,0,74.33,195Z" fill="#b5b5b5"/><path d="M74.2,222.7a16.38,16.38,0,1,1,16.38-16.38A16.4,16.4,0,0,1,74.2,222.7Zm0-31.76a15.38,15.38,0,1,0,15.38,15.38A15.4,15.4,0,0,0,74.2,190.94Z" fill="#b5b5b5"/><path d="M47.48,182.75l-.22-1L64.85,178c.81-.12,19.32-2.88,22.45-3.06a9.08,9.08,0,0,0,4.11-.93l5.53-3.8.57.82L92,174.81c-.06,0-1.38.92-4.62,1.11S65.22,178.94,65,179Z" fill="#b5b5b5"/><rect x="92.93" y="207.53" width="101.16" height="1" fill="#b5b5b5"/><path d="M123.78,160.1c-19.93,9.7-19,13.3-19,13.3l47.62-2.14,5.09-21S142.5,149.59,123.78,160.1Z" fill="#d6d6d6"/><path d="M104.4,173.92l-.1-.4c-.18-.66-.06-4.47,19.24-13.87,18.63-10.44,33.81-9.9,34-9.89l.6,0-5.31,22Zm52.45-23.17c-3,0-16.56.65-32.83,9.78h0c-15,7.32-18,11.11-18.58,12.33L152,170.78Z" fill="#b5b5b5"/><path d="M36.8,46.51l10.57.76S43.59,42,44.14,39.09L32.25,37.73" fill="#d6d6d6"/><path d="M48.4,47.85,36.76,47l.07-1,9.55.69c-1-1.54-2.88-4.8-2.79-7.17l-11.4-1.31.12-1,12.43,1.43-.1.53c-.43,2.22,2.12,6.38,3.14,7.79Z" fill="#b5b5b5"/><path d="M190.9,208.53v-1a1.08,1.08,0,0,0,1-.69l.18-3.34c-.18-6,3.53-11.37,3.95-12,1.43-3.19,9-8.4,10-9.07,1-1.8.54-8.37.26-11a6,6,0,0,1-1.61-2.39l-6.56-19-37.91-1.2c-19.39,1.32-27.64,5.26-27.73,5.3s-12.93,6.47-21.65,11.23c-8.45,4.61-9,11-9,11.05v28.11a3.12,3.12,0,0,0,1.94,3l-.33.94a4.14,4.14,0,0,1-2.61-3.93V176.43c0-.31.53-7,9.49-11.9,8.74-4.76,21.56-11.18,21.69-11.24.34-.17,8.48-4.08,28.15-5.41l38.65,1.22,6.8,19.72a6.49,6.49,0,0,0,1.5,2.1l.11.12,0,.16c.11,1,1,9.58-.45,11.88l-.14.15c-.08.06-8.4,5.69-9.71,8.75l-.06.1c0,.06-4,5.49-3.79,11.44l-.21,3.6A2.13,2.13,0,0,1,190.9,208.53Z" fill="#b5b5b5"/><polygon points="160.23 170.6 203.63 170.6 196.85 150.95 161.95 150.25 160.23 170.6" fill="#d6d6d6"/><path d="M204.33,171.1H159.68l1.81-21.36,35.72.71Zm-43.56-1h42.16l-6.44-18.66-34.08-.68Z" fill="#b5b5b5"/><path d="M155.17,208.11c-1.59-9.69-.51-27.91-.5-28.1,0-5.74,4.8-30.66,5-31.72l1,.19c-.05.26-5,25.88-5,31.56,0,.22-1.09,18.33.49,27.91Z" fill="#b5b5b5"/><path d="M199.1,150.46,205.65,170h12.94s3.06-1.37.65-4.24S210.49,156.62,199.1,150.46Z" fill="#d6d6d6"/><path d="M218.7,170.48H205.29l-7.07-21.07,1.12.61c12.51,6.77,18.69,13.5,20.28,15.4a3,3,0,0,1-.82,5Zm-12.69-1h12.46a2.24,2.24,0,0,0,1.16-1.34,2.5,2.5,0,0,0-.77-2.07c-1.52-1.81-7.27-8.08-18.88-14.56Z" fill="#b5b5b5"/><polyline points="126.15 80.61 129.59 77.6 115.63 70.3 104.25 63.73 97.22 58.94 86.16 58.94" fill="#d6d6d6"/><polygon points="126.48 80.99 125.82 80.24 128.71 77.71 115.39 70.74 104 64.17 97.07 59.44 86.16 59.44 86.16 58.44 97.38 58.44 104.53 63.32 115.88 69.87 130.47 77.5 126.48 80.99" fill="#b5b5b5"/><path d="M259.42,47.07s-5.37.32-7,.58a1.86,1.86,0,0,0-1.74,1.49s-.06,5.36,0,7a1.64,1.64,0,0,0,1.36,1.74h7.37" fill="#d6d6d6"/><path d="M259.42,58.36h-7.37a2.14,2.14,0,0,1-1.86-2.23c-.06-1.6,0-6.78,0-7a2.33,2.33,0,0,1,2.17-2c1.62-.26,6.81-.57,7-.59l.06,1c-.05,0-5.36.33-6.94.58-1.22.19-1.32,1-1.32,1s-.06,5.32,0,6.91c0,1.1.77,1.24.91,1.26h7.32Z" fill="#b5b5b5"/><path d="M161,85.32,144,84l-10-1.67-5.77-1.3-4.5-1.68-12.43-5.94L98.1,66.58,85,58.85,68.28,55.72,58.09,53.5l-20.7-5.41L37.28,48c-7.1-8.85-7.18-17-6-22.32a24.31,24.31,0,0,1,4.33-9.48l.15-.18H55.5l0,.54c0,.13-1,13.3,6,20.6,3.25,3.4,7.74,5,13.35,4.84C80.6,41.77,85,39.83,88,36.19c6-7.41,4.11-19.51,4.09-19.63L92,16H194.49l0,.54c0,.12-.81,11.94,5.64,19.27,3.13,3.56,7.48,5.52,12.94,5.81s9.93-1.19,13.06-4.4c6.27-6.42,5.47-17.7,5.46-17.81l0-.58,29.08,1.71,2.63,3.24.76,5.32v7.57l-1.58,3.55L259.92,42V59.53l-2.33,1.9-4,.58H247.4l-9.23.37-4.31.54-4.68,2.35-7.55,6.07L212,77.83,205.64,81l-7.2,2.82-5,.56L177,85.32ZM38,47.2l20.37,5.32,10.15,2.22,17,3.2,13.13,7.77,13.11,6.83,12.37,5.91,4.4,1.65,5.67,1.27,10,1.66,17,1.29h15.86l16.44-.93,4.9-.54,7-2.75L211.48,77,221,70.53l7.64-6.13,5-2.46,4.44-.55,9.29-.38h6.12l3.68-.53,1.74-1.42V41.47l2.69-1.92L263,36.44V29.15l-.72-5L260.1,21.5l-27.52-1.62c.09,2.45,0,12.05-5.77,18-3.35,3.43-8,5-13.84,4.69s-10.32-2.37-13.64-6.14c-6-6.83-6-17-5.91-19.47H93.18c.33,2.58,1.25,12.94-4.39,19.84-3.16,3.87-7.85,5.94-13.93,6.14-5.9.19-10.65-1.53-14.11-5.15C54.2,31,54.31,19.61,54.43,17H36.25C35,18.68,25.84,32,38,47.2Z" fill="#b5b5b5"/><path d="M213.69,35.58A12.34,12.34,0,1,1,226,23.24,12.34,12.34,0,0,1,213.69,35.58Zm0-23.67A11.34,11.34,0,1,0,225,23.24,11.34,11.34,0,0,0,213.69,11.91Z" fill="#b5b5b5"/><path d="M213.57,39.59A16.38,16.38,0,1,1,230,23.22,16.39,16.39,0,0,1,213.57,39.59Zm0-31.75A15.38,15.38,0,1,0,229,23.22,15.4,15.4,0,0,0,213.57,7.84Z" fill="#b5b5b5"/><path d="M74.33,35.58A12.34,12.34,0,1,1,86.66,23.24,12.35,12.35,0,0,1,74.33,35.58Zm0-23.67A11.34,11.34,0,1,0,85.66,23.24,11.34,11.34,0,0,0,74.33,11.91Z" fill="#b5b5b5"/><path d="M74.2,39.59A16.38,16.38,0,1,1,90.58,23.22,16.39,16.39,0,0,1,74.2,39.59Zm0-31.75A15.38,15.38,0,1,0,89.58,23.22,15.4,15.4,0,0,0,74.2,7.84Z" fill="#b5b5b5"/><rect x="44.14" y="38.42" width="18.35" height="1" transform="matrix(1, -0.02, 0.02, 1, -0.75, 1.05)" fill="#b5b5b5"/><rect x="52.82" y="181.44" width="1" height="18.35" transform="translate(-138.28 240.3) rotate(-88.91)" fill="#b5b5b5"/><path d="M96.94,59.35l-5.53-3.8a9.08,9.08,0,0,0-4.11-.93c-3.13-.19-21.64-2.94-22.42-3.06l-17.62-3.8.22-1,17.58,3.79c.16,0,19.21,2.86,22.3,3A9.8,9.8,0,0,1,92,54.72l5.53,3.81Z" fill="#b5b5b5"/><rect x="92.93" y="21.01" width="101.16" height="1" fill="#b5b5b5"/><path d="M157.49,79.28l-5.09-21-47.62-2.14s-.93,3.6,19,13.3C142.5,79.94,157.49,79.28,157.49,79.28Z" fill="#d6d6d6"/><path d="M157,79.79c-2.71,0-16.7-.49-33.5-9.91-19.29-9.4-19.41-13.2-19.23-13.87l.1-.39,48.4,2.18,5.31,22-.6,0ZM105.4,56.67C106,57.83,108.86,61.62,124,69c16.31,9.15,29.86,9.78,32.85,9.8l-4.84-20Z" fill="#b5b5b5"/><path d="M160.18,81.65c-19.72-1.33-27.86-5.23-28.2-5.4-.13-.07-12.95-6.48-21.69-11.25-9-4.89-9.47-11.58-9.48-11.86V25A4.12,4.12,0,0,1,103.41,21l.33.94-.16-.47.16.47a3.12,3.12,0,0,0-1.94,3V53.11s.52,6.41,9,11c8.72,4.75,21.53,11.16,21.66,11.22s8.33,4,27.77,5.3l37.86-1.2,6.57-19.06a6.48,6.48,0,0,1,1.6-2.33c.28-2.63.71-9.19-.26-11-1-.67-8.53-5.88-10-9.07-.42-.59-4.13-5.94-3.95-12l-.18-3.3a1.09,1.09,0,0,0-1-.68V21a2.12,2.12,0,0,1,1.95,1.41l0,.14.18,3.42c-.18,6,3.75,11.42,3.79,11.47l.06.1c1.31,3.07,9.63,8.7,9.71,8.75l.14.15c1.44,2.3.56,10.91.45,11.88l0,.17-.11.12a7.07,7.07,0,0,0-1.49,2.05l-6.81,19.76Z" fill="#b5b5b5"/><polygon points="161.95 79.29 196.85 78.59 203.63 58.94 160.23 58.94 161.95 79.29" fill="#d6d6d6"/><path d="M161.49,79.8l-1.81-21.36h44.65l-7.12,20.64Zm-.72-20.36,1.64,19.34,34.08-.68,6.44-18.66Z" fill="#b5b5b5"/><path d="M159.67,81.25c-.2-1.06-5-26-5-31.76,0-.15-1.09-18.37.5-28.06l1,.16c-1.58,9.58-.5,27.69-.49,27.87,0,5.71,4.93,31.34,5,31.6Z" fill="#b5b5b5"/><path d="M219.39,63.59c2.41-2.87-.64-4.24-.64-4.24H205.8l-6.55,19.53C210.64,72.71,217,66.46,219.39,63.59Z" fill="#d6d6d6"/><path d="M198.37,79.92l7.07-21.07,13.51,0a3,3,0,0,1,.83,5c-1.6,1.9-7.78,8.63-20.29,15.41Zm7.79-20.07-6,18c11.61-6.47,17.36-12.74,18.88-14.55a2.48,2.48,0,0,0,.77-2.08,2.32,2.32,0,0,0-1.15-1.34Z" fill="#b5b5b5"/><path d="M126.61,80.3,93.25,70.9S84.63,80,82.75,99.57L82.34,131s1.49,18.22,10.83,27.75l33.44-9.62a312,312,0,0,1-2.77-31.63C123.4,101.75,126.61,80.3,126.61,80.3Z" fill="#d6d6d6"/><path d="M93,159.34l-.21-.22c-9.36-9.54-10.91-27.29-11-28.05l.41-31.51c1.88-19.56,10.28-28.62,10.64-29l.2-.22,34.08,9.6-.06.44c0,.21-3.21,21.58-2.77,37.14a310,310,0,0,0,2.77,31.57l.06.43Zm.4-87.87C92.13,73,84.93,82.1,83.25,99.62L82.84,131c0,.13,1.56,17.83,10.48,27.17l32.74-9.41a310,310,0,0,1-2.72-31.25c-.4-14.41,2.27-33.75,2.72-36.88Z" fill="#b5b5b5"/><path d="M92.61,159.27c-.33,0-32.4-.58-45.29-4.37h0c-.09,0-10.93-1.19-11.79-13.28-.09-1.19-.18-2.45-.29-3.79-.9-11.8-2.26-29.64.29-50.64,0,0-.34-9.39,11.71-12.56A369,369,0,0,1,93.45,70.4l0,1a372.32,372.32,0,0,0-46,4.2c-11.2,3-10.94,11.27-10.93,11.62-2.53,21-1.18,38.77-.28,50.54.1,1.33.2,2.59.28,3.78.81,11.28,10.57,12.34,11,12.38,12.87,3.77,44.8,4.35,45.12,4.35Z" fill="#b5b5b5"/><path d="M212.43,115.61c-.42,21.59-4.46,34-4.46,34l22.1,7.23s4.66-22.58,4.66-42-4.66-42-4.66-42L208,79.29S212.85,94,212.43,115.61Z" fill="#d6d6d6"/><path d="M230.45,157.47l-23.11-7.56.15-.47c0-.13,4-12.58,4.44-33.84h0c.42-21.24-4.39-36-4.44-36.15l-.16-.5,23.12-6.73.11.53c.05.23,4.67,22.86,4.67,42.09s-4.62,41.86-4.67,42.08Zm-21.86-8.2,21.1,6.9c.7-3.57,4.54-23.87,4.54-41.33S230.38,77,229.69,73.49l-21.1,6.14a123.14,123.14,0,0,1,4.34,36h0C212.55,134.71,209.32,146.78,208.59,149.27Z" fill="#b5b5b5"/><path d="M229.46,157.32l0-1,25.6-.63a2.62,2.62,0,0,0,1.93-.82c1.05-1,2.25-3.4,2-9l1.3-29.08-1.3-37.46a6.41,6.41,0,0,0-1.26-4.24,5.27,5.27,0,0,0-3.82-1.72H229.45v-1h24.42a6.3,6.3,0,0,1,4.56,2.08,7.25,7.25,0,0,1,1.49,4.9l1.29,37.45-1.29,29.07c.25,4.8-.53,8.11-2.31,9.78a3.48,3.48,0,0,1-2.62,1.05Z" fill="#b5b5b5"/><path d="M282.22,162.51a2,2,0,0,1-1.28-.5,3.44,3.44,0,0,1-1-2.46H260.21V70.4H280v-.88a1.33,1.33,0,0,1,.43-.92c.67-.68,2-1,4-.9a40.28,40.28,0,0,1,7.15.92l7.5,2.29,1.58.89,0,2.91L300,76l-.22,78.35,1,4L296,160.16l-7.87,2.34h-5.89Zm-21-4h19.72v.5a2.94,2.94,0,0,0,.67,2.2,1,1,0,0,0,.67.26H288l7.62-2.29,3.9-1.49-.79-3.29L299,75.8l.66-1.41v-2l-1-.58-7.33-2.22a40,40,0,0,0-6.92-.89c-2.7-.12-3.35.56-3.38.83V71.4H261.21Z" fill="#b5b5b5"/><path d="M275.42,145.75l-.43-.9a7.15,7.15,0,0,0,3.77-5.46V90.45c0-3.09-3.95-4.93-4-4.94l.41-.92c.19.09,4.58,2.12,4.58,5.86v49A8,8,0,0,1,275.42,145.75Z" fill="#b5b5b5"/><path d="M291,160.48l-2.35-12c0-2.73-.28-64.77,0-69.22A44,44,0,0,1,291,68.94l.94.34a44.19,44.19,0,0,0-2.32,10c-.27,4.42,0,68.42,0,69.06l2.34,11.91Z" fill="#b5b5b5"/><path d="M299.17,154.91c-5.52-1.63-5.38-8.73-5.38-8.8,0-2.35-.43-58,0-63.2a8.93,8.93,0,0,1,5.52-7.47l.35.94A7.92,7.92,0,0,0,294.79,83c-.43,5.19,0,62.55,0,63.13,0,.08-.11,6.42,4.66,7.84Z" fill="#b5b5b5"/><path d="M296,71.47s-2.41.13-3.15,1.73,0,4.92,0,4.92l3.9-2.21Z" fill="#d6d6d6"/><path d="M292.55,78.89l-.14-.66c0-.14-.77-3.5,0-5.24s3.46-2,3.57-2l.45,0,.89,5.22ZM295.63,72a3,3,0,0,0-2.28,1.38,8.24,8.24,0,0,0-.09,3.93l3-1.69Z" fill="#b5b5b5"/><path d="M296.79,154.29l-3.9-2.21s-.73,3.31,0,4.92,3.15,1.73,3.15,1.73Z" fill="#d6d6d6"/><path d="M296.46,159.25l-.45,0c-.11,0-2.71-.16-3.57-2s-.06-5.09,0-5.24l.14-.66,4.8,2.72Zm-3.2-6.39a8.24,8.24,0,0,0,.09,3.93,3,3,0,0,0,2.28,1.38l.61-3.61Z" fill="#b5b5b5"/><path d="M299.5,152.86l0-1c.1,0,2.53-.09,2.53-1.81s-2.42-1.73-2.52-1.73h0v-1c.1,0,2.52,0,2.52-1.8a1.37,1.37,0,0,0-.41-1,3.24,3.24,0,0,0-2.09-.63l0-1a4.32,4.32,0,0,1,2.82.9,2.34,2.34,0,0,1,.72,1.77,2.48,2.48,0,0,1-1.42,2.29,2.44,2.44,0,0,1,1.42,2.24C303,152.21,300.72,152.83,299.5,152.86Z" fill="#b5b5b5"/><path d="M27.08,166,4.27,163.22c-.19-.05-2.49-.83-2.36-4,.12-2.78,0-13.24,0-13.35v-.24l.19-.15h0s.91-.87,1-4.1c.11-3.42.23-50,.24-53.71-.47-.45-1.45-1.77-1.44-5v-13h0A2.43,2.43,0,0,1,2.42,68a4.08,4.08,0,0,1,2.93-1.37c3.36-.38,23-2.49,23-2.49l.31,0,5.07,8.1-2.59,4a19,19,0,0,0-.45,6.39,11,11,0,0,0,1.65,4.32l1.26.68,1.17,7.82.6,30.83-.6,9.34-1.25,7-.25.11a4.79,4.79,0,0,0-2.57,4.5,48.38,48.38,0,0,0,.45,6.52l2.58,3.95-4.12,6.94ZM4.45,162.24l22.44,2.7,2-1.06,3.65-6.16L30.2,154a47.42,47.42,0,0,1-.48-6.78,5.81,5.81,0,0,1,2.93-5.29l1.15-6.46.59-9.25-.6-30.72L32.7,88.24l-1.08-.63a11.75,11.75,0,0,1-1.9-4.84,20,20,0,0,1,.49-6.88l.07-.15,2.29-3.57-4.41-7c-2.52.27-19.59,2.1-22.7,2.45a3.15,3.15,0,0,0-2.23,1,1.53,1.53,0,0,0-.33,1.06c0,.08,0,9.26,0,13.07C2.9,86.11,4.12,87,4.13,87l.21.15v.27c0,.5-.12,50.41-.24,54-.1,3-.84,4.2-1.2,4.64,0,1.52.11,10.57,0,13.21A2.83,2.83,0,0,0,4.45,162.24Z" fill="#b5b5b5"/><path d="M25,141.17c-2.8,0-5.09-2.32-5.19-2.42-2.9-4.29-3.8-16-3.68-25.52s1.26-20.18,3.57-21.92l0,0C25.52,87.49,30.08,93,30.13,93l.09.19c0,.09,1.93,8.2,1.93,21.81a114.72,114.72,0,0,1-1.92,22.34l-.06.14c-1.24,2.17-2.78,3.39-4.58,3.62A4.4,4.4,0,0,1,25,141.17Zm-4.42-3s2.38,2.35,4.92,2c1.45-.19,2.73-1.22,3.8-3.06A114.54,114.54,0,0,0,31.15,115a105.37,105.37,0,0,0-1.87-21.46c-.58-.65-4.28-4.53-9-1.45-3.29,2.55-5.13,38,.29,46Z" fill="#b5b5b5"/><path d="M10.29,144.3a4.18,4.18,0,0,1-2.69-1.17L7.45,143l0-.2c0-.22-2.26-23.24,0-55.66v-.28l.25-.13c.13-.06,3.22-1.63,5,.09l.16.14v56l-.09.13a3.27,3.27,0,0,1-2.11,1.23A2.23,2.23,0,0,1,10.29,144.3ZM8.4,142.5a2.94,2.94,0,0,0,2.12.79,2.22,2.22,0,0,0,1.34-.72V87.41c-1.07-.8-2.81-.18-3.46.1A372.25,372.25,0,0,0,8.4,142.5Z" fill="#b5b5b5"/><path d="M14.69,85.8a3.34,3.34,0,0,1-1.08-.17,2.84,2.84,0,0,1-1.71-1.74l0-.12L10.37,72.5l0-.11a4.51,4.51,0,0,1,4.21-3h.17c3.18,0,5.06,3.72,5.14,3.88l.08.15L17.72,84.9l-.2.11A6.48,6.48,0,0,1,14.69,85.8Zm-1.84-2.23a1.81,1.81,0,0,0,1.09,1.11,4.24,4.24,0,0,0,2.89-.44L19,73.61c-.37-.65-2-3.3-4.3-3.17a3.48,3.48,0,0,0-3.26,2.15Z" fill="#b5b5b5"/><ellipse cx="15.24" cy="75.18" rx="2.64" ry="2.73" fill="#d6d6d6"/><path d="M15.24,78.41a3.23,3.23,0,1,1,3.13-3.23A3.19,3.19,0,0,1,15.24,78.41Zm0-5.46a2.23,2.23,0,1,0,2.13,2.23A2.19,2.19,0,0,0,15.24,73Z" fill="#b5b5b5"/><path d="M14.79,160.72h-.17a4.5,4.5,0,0,1-4.21-3l0-.1,0-.11,1.51-11.28a2.84,2.84,0,0,1,1.71-1.74c1.73-.6,3.82.57,3.91.62l.2.11L20,156.68l-.08.16C19.85,157,18,160.72,14.79,160.72Zm-3.39-3.17a3.48,3.48,0,0,0,3.26,2.16h.12c2.25,0,3.82-2.54,4.18-3.18l-2.13-10.63a4.24,4.24,0,0,0-2.89-.44,1.82,1.82,0,0,0-1.09,1.1Z" fill="#b5b5b5"/><ellipse cx="15.24" cy="154.97" rx="2.64" ry="2.73" fill="#d6d6d6"/><path d="M15.24,158.2A3.23,3.23,0,1,1,18.37,155,3.19,3.19,0,0,1,15.24,158.2Zm0-5.46A2.23,2.23,0,1,0,17.37,155,2.19,2.19,0,0,0,15.24,152.74Z" fill="#b5b5b5"/><path d="M142.74,180.29a19.3,19.3,0,0,1-2-.09c-1.5-.15-2.16-.46-2.2-1-.09-1.29,3.86-1.76,6.22-1.93a27,27,0,0,1,4.23,0c1.51.15,2.17.46,2.21,1a.74.74,0,0,1-.19.54c-.66.76-3.67,1.23-6,1.39C144.22,180.26,143.45,180.29,142.74,180.29Zm-2.8-1.22a20,20,0,0,0,5,.14,19.45,19.45,0,0,0,4.94-.84,19.1,19.1,0,0,0-5-.14A19.34,19.34,0,0,0,139.94,179.07Z" fill="#b5b5b5"/><path d="M193.74,180.29a19.3,19.3,0,0,1-2-.09c-1.5-.15-2.16-.46-2.2-1-.09-1.29,3.86-1.76,6.22-1.93a27,27,0,0,1,4.23,0c1.51.15,2.17.46,2.21,1a.74.74,0,0,1-.19.54c-.66.76-3.67,1.23-6,1.39C195.22,180.26,194.45,180.29,193.74,180.29Zm-2.8-1.22a20,20,0,0,0,5,.14,19.45,19.45,0,0,0,4.94-.84,19.1,19.1,0,0,0-5-.14A19.34,19.34,0,0,0,190.94,179.07Z" fill="#b5b5b5"/><path d="M146.08,52.7c-.71,0-1.48,0-2.28-.08-2.36-.17-6.31-.64-6.22-1.93,0-.58.7-.89,2.2-1a27,27,0,0,1,4.23,0h0c2.37.17,5.38.63,6,1.4a.73.73,0,0,1,.19.53c0,.58-.7.89-2.21,1C147.46,52.67,146.8,52.7,146.08,52.7Zm-7.14-1.91a19.49,19.49,0,0,0,4.93.83,19.13,19.13,0,0,0,5-.14,19.6,19.6,0,0,0-4.94-.83A19,19,0,0,0,138.94,50.79Z" fill="#b5b5b5"/><path d="M197.08,52.7c-.71,0-1.48,0-2.28-.08-2.36-.17-6.31-.64-6.22-1.93,0-.58.7-.89,2.2-1a27,27,0,0,1,4.23,0h0c2.37.17,5.38.63,6,1.4a.73.73,0,0,1,.19.53c0,.58-.7.89-2.21,1C198.46,52.67,197.8,52.7,197.08,52.7Zm-7.14-1.91a19.49,19.49,0,0,0,4.93.83,19.1,19.1,0,0,0,5-.14,19.6,19.6,0,0,0-4.94-.83A19,19,0,0,0,189.94,50.79Z" fill="#b5b5b5"/><path d="M29.72,147.07c0,1.49.5,7.07.5,7.07l2.75,4,4,3.66s1.25,0,1.37-1.83,0-8.37,0-8.37a26,26,0,0,1-5.37-10S29.33,143.47,29.72,147.07Z" fill="#d6d6d6"/><path d="M37,162.32h-.2l-4.21-3.88-2.82-4.12v-.13c0-.23-.5-5.56-.5-7.09-.41-3.89,3.36-5.8,3.52-5.88l.55-.27.15.59a25.65,25.65,0,0,0,5.26,9.74l.13.14v.19c0,.26.13,6.58,0,8.42S37.56,162.32,37,162.32Zm-3.62-4.49,3.78,3.46c.23-.08.65-.37.71-1.33.11-1.62,0-7.07,0-8.15a26.54,26.54,0,0,1-5.19-9.38A5,5,0,0,0,30.22,147v0c0,1.32.41,6.05.48,6.9Z" fill="#b5b5b5"/><path d="M33,87.82a25.94,25.94,0,0,1,5.37-9.94s.13-6.55,0-8.38S37,67.67,37,67.67l-4,3.66-2.75,4s-.5,5.59-.5,7.07C29.33,86,33,87.82,33,87.82Z" fill="#d6d6d6"/><path d="M33.3,88.54l-.55-.27c-.16-.08-3.95-2-3.52-5.91,0-1.43.48-6.82.5-7v-.13L32.63,71l4.14-3.8H37c.59,0,1.75.48,1.87,2.3s0,8.15,0,8.42v.19l-.13.14A25.66,25.66,0,0,0,33.45,88Zm-2.59-13c-.07.84-.48,5.57-.48,6.89a5,5,0,0,0,2.43,4.64,26.64,26.64,0,0,1,5.19-9.38c0-1.08.1-6.53,0-8.14-.06-1-.48-1.25-.71-1.34l-3.78,3.46Z" fill="#b5b5b5"/><path d="M276.18,159.05V146.53s-.42-1.74-1.71-1.13l-8.54,3.92s-1.57.93-1.7,2.22-.13,7.51-.13,7.51Z" fill="#d6d6d6"/><path d="M276.69,159.55H263.6v-.5c0-.25,0-6.26.13-7.56a4.14,4.14,0,0,1,1.94-2.6c.05,0,7.29-3.34,8.58-3.95a1.52,1.52,0,0,1,1.34,0,2.38,2.38,0,0,1,1.08,1.5l0,.12Zm-12.09-1h11.09v-12c-.07-.21-.25-.66-.54-.79a.5.5,0,0,0-.47,0c-1.3.61-8.55,3.93-8.55,3.93-.32.2-1.32,1-1.4,1.81C264.62,152.63,264.6,157.05,264.6,158.55Z" fill="#b5b5b5"/><path d="M276.18,71.27V83.79s-.42,1.74-1.71,1.13L265.93,81s-1.57-.93-1.7-2.22-.13-7.51-.13-7.51Z" fill="#d6d6d6"/><path d="M275,85.55a1.86,1.86,0,0,1-.74-.17c-1.29-.61-8.53-3.93-8.53-3.93a4.11,4.11,0,0,1-2-2.62c-.13-1.29-.13-7.3-.13-7.56v-.5h13.09l0,13.14a2.38,2.38,0,0,1-1.08,1.5A1.3,1.3,0,0,1,275,85.55Zm-8.81-5,8.5,3.9a.5.5,0,0,0,.47,0c.29-.13.47-.58.54-.79v-12H264.6c0,1.5,0,5.93.13,7,.08.85,1.07,1.61,1.45,1.84Z" fill="#b5b5b5"/><path d="M110.63,172.33l-2.78,2.92a1.68,1.68,0,0,0,.57,1.21,2,2,0,0,0,1.55.4l3.53-2.7-2.87-1.83" fill="#fff"/><path d="M109.64,177.38a2.33,2.33,0,0,1-1.55-.55,2.15,2.15,0,0,1-.74-1.57v-.2l3.2-3.37,3.83,2.43-4.2,3.21-.12,0A2.66,2.66,0,0,1,109.64,177.38Zm-1.27-1.95a1.15,1.15,0,0,0,.38.65,1.4,1.4,0,0,0,1,.3l2.85-2.18L110.7,173Z" fill="#b5b5b5"/><path d="M117.9,168.43a15.59,15.59,0,0,0-2.46-.07c-2.11,0-4.39.1-5.26,1.36a2.46,2.46,0,0,0,.45,2.92c1.25,1.47,4,1.93,5.87,1.3C116.88,172.09,117.34,170.26,117.9,168.43Z" fill="#fff"/><path d="M114.68,174.71a5.87,5.87,0,0,1-4.43-1.74,3,3,0,0,1-.48-3.54c1-1.46,3.37-1.52,5.65-1.57a15.74,15.74,0,0,1,2.55.08l.58.08-.17.56c-.54,1.76-1,3.6-1.39,5.46l-.06.28-.28.09A6.17,6.17,0,0,1,114.68,174.71Zm1.67-5.86h-.9c-1.94,0-4.13.09-4.85,1.14a2,2,0,0,0,.41,2.32,5.38,5.38,0,0,0,5.06,1.23c.33-1.59.73-3.16,1.17-4.68C117,168.85,116.65,168.85,116.35,168.85Z" fill="#b5b5b5"/><path d="M110.63,56.9l2.87-1.83L110,52.38a1.93,1.93,0,0,0-1.55.39,1.68,1.68,0,0,0-.57,1.21l2.78,2.92" fill="#fff"/><path d="M110.55,57.55l-3.2-3.38V54a2.15,2.15,0,0,1,.74-1.57,2.47,2.47,0,0,1,2-.52l.12,0,4.2,3.21Zm-2.18-3.75,2.33,2.46L112.63,55l-2.85-2.18a1.4,1.4,0,0,0-1,.3A1.15,1.15,0,0,0,108.37,53.8Z" fill="#b5b5b5"/><path d="M116.5,55.29c-1.92-.63-4.62-.17-5.87,1.3a2.48,2.48,0,0,0-.45,2.93c.87,1.25,3.15,1.3,5.26,1.35a15.59,15.59,0,0,0,2.46-.07C117.34,59,116.88,57.14,116.5,55.29Z" fill="#fff"/><path d="M116.36,61.38h-.94c-2.28,0-4.64-.11-5.65-1.57a3,3,0,0,1,.48-3.54c1.46-1.72,4.46-2.08,6.4-1.44l.28.09.06.28c.38,1.86.85,3.7,1.39,5.46l.17.56-.58.08A12.32,12.32,0,0,1,116.36,61.38Zm-1.69-5.87a5,5,0,0,0-3.66,1.4,2,2,0,0,0-.41,2.32c.72,1.05,2.91,1.1,4.84,1.14.55,0,1.2,0,1.8,0-.44-1.52-.84-3.09-1.17-4.67A5.43,5.43,0,0,0,114.67,55.51Z" fill="#b5b5b5"/><path d="M40.31,210.32a2.94,2.94,0,0,1-2.77-1.9l-.26-.73h0a2.73,2.73,0,0,1,.18-2.25A2.89,2.89,0,0,1,39.39,204l7.63-1.7a3,3,0,0,1,3.46,1.91l.58,1.8a2.74,2.74,0,0,1-.34,2.37,2.9,2.9,0,0,1-2.22,1.28l-8,.64Zm-2.1-3,0,.06.25.69a2,2,0,0,0,2,1.23l8-.63a1.93,1.93,0,0,0,1.47-.85,1.74,1.74,0,0,0,.22-1.5l-.58-1.8a2,2,0,0,0-2.29-1.24L39.61,205a1.92,1.92,0,0,0-1.28.93A1.74,1.74,0,0,0,38.21,207.33Z" fill="#b5b5b5"/><path d="M48.67,205.92c0-1.26-.47-2.29-1-2.29s-1,1-1,2.29.46,2.3,1,2.3S48.67,207.19,48.67,205.92Z" fill="#d6d6d6"/><path d="M47.63,208.71c-1,0-1.54-1.4-1.54-2.79s.53-2.79,1.54-2.79,1.54,1.41,1.54,2.79S48.64,208.71,47.63,208.71Zm0-4.58c-.13,0-.54.62-.54,1.79s.41,1.77.54,1.79.54-.62.54-1.79S47.76,204.16,47.63,204.13Z" fill="#b5b5b5"/><path d="M48,27.15a3.69,3.69,0,0,1-.65-.07l-7.63-1.7A3,3,0,0,1,37.73,24a2.73,2.73,0,0,1-.17-2.25l.26-.73a2.92,2.92,0,0,1,3-1.89l8,.63A3,3,0,0,1,51,21a2.77,2.77,0,0,1,.34,2.37l-.58,1.79A2.94,2.94,0,0,1,48,27.15ZM39.88,24.4l7.64,1.7a2,2,0,0,0,2.28-1.24l.58-1.8a1.72,1.72,0,0,0-.21-1.51,2,2,0,0,0-1.47-.84l-8-.63a1.92,1.92,0,0,0-2,1.23l-.25.7a1.7,1.7,0,0,0,.1,1.46,1.91,1.91,0,0,0,1.27.93Z" fill="#b5b5b5"/><path d="M47.91,21.17c-.58,0-1,1-1,2.29s.46,2.3,1,2.3,1-1,1-2.3S48.48,21.17,47.91,21.17Z" fill="#d6d6d6"/><path d="M47.91,26.26c-1,0-1.54-1.41-1.54-2.8s.53-2.79,1.54-2.79,1.53,1.41,1.53,2.79S48.92,26.26,47.91,26.26Zm0-4.59c-.14,0-.54.63-.54,1.79s.41,1.77.54,1.8.53-.63.53-1.8S48,21.71,47.91,21.67Z" fill="#b5b5b5"/></svg>